<svg id="Calque_1" data-name="Calque 1" xmlns="http://www.w3.org/2000/svg" viewBox="0 0 512 512"><defs><style>.cls-1{fill:#fff;}</style></defs><title>safari-pinned-tab</title><path class="cls-1" d="M705,285h512V797H705ZM974.91,435.69h90.66V345.43H1036v60.36H974.62V345.56H944.91v60.28h-60.2V345.51H854.5V436h90.7v90.55h29.71Zm-.22,212.4V557.52H945v90.73h-90.5v90.27h30.63V678.26h60.2v60.3H975V678.22h61.2V738.6h29.22V648.09Zm90.94-332.66H945.43v14.14h120.2Zm-242,212.12H809.55v28.89H824.1V546.18h42.23v29.28h36.74v-29.6h5.82c10.83,0,21.66,0,32.5,0,3.14,0,3.14-.11,2.75-3.8H903.48c-1.58-3.91.45-4.22,3.19-4.21,11.16.06,22.33,0,33.5,0,1.57,0,3.15-.28,4.72-.43l-.13-1.63H896v36H872.62V534.91H824.06Zm223.57-11.45V546h50v10.54h14.29v-29h-14.19c-.14,2.6-.26,4.88-.39,7.23h-42.29V512.47H1016.9v23H975.29l-.21,1.53a26.58,26.58,0,0,0,4.45.77c11.34.07,22.67.09,34,0,3.06,0,4.3.87,3,4.32h-5.49c-10.84,0-21.67,0-32.5,0-3.14,0-3.14.12-2.72,3.33H1025V516.1ZM854.41,754.39v15.2h30.18v-15.2Zm91,0v15.2h29.14v-15.2Zm120.1,15.3v-15.2h-29.06v15.2ZM884.68,315.5H854.5v14h30.18Zm83,220H953.51v14h14.16Z" transform="translate(-705 -285)"/><path d="M974.91,435.69v90.84H945.2V436H854.5V345.51h30.21v60.33h60.2V345.56h29.71v60.23H1036V345.43h29.57v90.26Z" transform="translate(-705 -285)"/><path d="M974.69,648.09h90.75V738.6h-29.22V678.22H975v60.34H945.31v-60.3h-60.2v60.26H854.48V648.25H945V557.52h29.71Z" transform="translate(-705 -285)"/><path d="M1065.63,315.43v14.14H945.43V315.43Z" transform="translate(-705 -285)"/><path d="M823.67,527.55l.39,7.36h48.56v36.88H896v-36h48.73l.13,1.63c-1.57.15-3.15.42-4.72.43-11.17,0-22.34,0-33.5,0-2.74,0-4.77.3-3.19,4.21h40.66c.39,3.69.39,3.78-2.75,3.8-10.84,0-21.67,0-32.5,0h-5.82v29.6H866.33V546.18H824.1v10.26H809.55V527.55Zm43,12.09-1.16-1.52H824.33l-.88,1.24c1.08.93,2.14,2.64,3.23,2.66q18.18.29,36.38,0C864.26,542,865.44,540.47,866.63,539.64Z" transform="translate(-705 -285)"/><path d="M1047.24,516.1H1025v29.39H975.85c-.42-3.21-.42-3.31,2.72-3.33,10.83,0,21.66,0,32.5,0h5.49c1.27-3.45,0-4.34-3-4.32-11.33.09-22.66.07-34,0a26.58,26.58,0,0,1-4.45-.77l.21-1.53h41.61v-23h37.74v22.25h42.29c.13-2.35.25-4.63.39-7.23h14.19v29h-14.29V546h-50Zm8.18,22c-1.2,3.06-.3,4.13,2.71,4.1q17.94-.12,35.88,0c3.18,0,3.53-1.4,2.7-4.1Z" transform="translate(-705 -285)"/><path d="M854.41,754.39h30.18v15.2H854.41Z" transform="translate(-705 -285)"/><path d="M945.43,754.37h29.14v15.2H945.43Z" transform="translate(-705 -285)"/><path d="M1065.53,769.67h-29.06v-15.2h29.06Z" transform="translate(-705 -285)"/><path d="M884.68,315.5v14H854.5v-14Z" transform="translate(-705 -285)"/><path d="M967.67,535.51v14H953.51v-14Z" transform="translate(-705 -285)"/><path class="cls-1" d="M866.63,539.64c-1.19.83-2.37,2.37-3.57,2.39q-18.19.27-36.38,0c-1.09,0-2.15-1.73-3.23-2.66l.88-1.24h41.14Z" transform="translate(-705 -285)"/><path class="cls-1" d="M1055.42,538.07h41.29c.83,2.7.48,4.12-2.7,4.1q-17.94-.12-35.88,0C1055.12,542.2,1054.22,541.13,1055.42,538.07Z" transform="translate(-705 -285)"/></svg>